name C:\Users\u0150099\Documents\master_thesis\3dpredictsim\Results\debug\Fal_s1_mtj_sc_cspx10_oy_ATx70_MTPm_k1_d01_MTJm_nl_MG_exp_table_d01_PF_Gefen2002_ls146_PIM2_w5e+04_w1e+04_ig21.mot
datacolumns 128
datarows 4
range 0.00000000 0.03149713
endheader
time	pelvis_tilt	pelvis_list	pelvis_rotation	pelvis_tx	pelvis_ty	pelvis_tz	hip_flexion_l	hip_adduction_l	hip_rotation_l	hip_flexion_r	hip_adduction_r	hip_rotation_r	knee_angle_l	knee_angle_r	ankle_angle_l	ankle_angle_r	subtalar_angle_l	subtalar_angle_r	mtj_angle_l	mtj_angle_r	mtp_angle_l	mtp_angle_r	lumbar_extension	lumbar_bending	lumbar_rotation	arm_flex_l	arm_add_l	arm_rot_l	arm_flex_r	arm_add_r	arm_rot_r	elbow_flex_l	elbow_flex_r	pro_sup_l	pro_sup_r	glut_med1_l/activation	glut_med2_l/activation	glut_med3_l/activation	glut_min1_l/activation	glut_min2_l/activation	glut_min3_l/activation	semimem_l/activation	semiten_l/activation	bifemlh_l/activation	bifemsh_l/activation	sar_l/activation	add_long_l/activation	add_brev_l/activation	add_mag1_l/activation	add_mag2_l/activation	add_mag3_l/activation	tfl_l/activation	pect_l/activation	grac_l/activation	glut_max1_l/activation	glut_max2_l/activation	glut_max3_l/activation	iliacus_l/activation	psoas_l/activation	quad_fem_l/activation	gem_l/activation	peri_l/activation	rect_fem_l/activation	vas_med_l/activation	vas_int_l/activation	vas_lat_l/activation	med_gas_l/activation	lat_gas_l/activation	soleus_l/activation	tib_post_l/activation	flex_dig_l/activation	flex_hal_l/activation	tib_ant_l/activation	per_brev_l/activation	per_long_l/activation	per_tert_l/activation	ext_dig_l/activation	ext_hal_l/activation	ercspn_l/activation	intobl_l/activation	extobl_l/activation	glut_med1_r/activation	glut_med2_r/activation	glut_med3_r/activation	glut_min1_r/activation	glut_min2_r/activation	glut_min3_r/activation	semimem_r/activation	semiten_r/activation	bifemlh_r/activation	bifemsh_r/activation	sar_r/activation	add_long_r/activation	add_brev_r/activation	add_mag1_r/activation	add_mag2_r/activation	add_mag3_r/activation	tfl_r/activation	pect_r/activation	grac_r/activation	glut_max1_r/activation	glut_max2_r/activation	glut_max3_r/activation	iliacus_r/activation	psoas_r/activation	quad_fem_r/activation	gem_r/activation	peri_r/activation	rect_fem_r/activation	vas_med_r/activation	vas_int_r/activation	vas_lat_r/activation	med_gas_r/activation	lat_gas_r/activation	soleus_r/activation	tib_post_r/activation	flex_dig_r/activation	flex_hal_r/activation	tib_ant_r/activation	per_brev_r/activation	per_long_r/activation	per_tert_r/activation	ext_dig_r/activation	ext_hal_r/activation	ercspn_r/activation	intobl_r/activation	extobl_r/activation	
          0.00000000	         -2.92463126	         -1.97193879	          2.77292666	          0.00000000	          0.91427877	         -0.00329717	        -11.13707093	          2.48212364	          4.82224227	         28.67432958	          3.73417890	         -3.79390707	        -19.12704239	        -12.70942727	          4.57327630	         10.88108281	         -5.76019496	         -2.83962026	         -4.76712418	         -8.74355908	         29.78361803	         12.70731491	         -3.07626431	          0.93709640	         -1.56275232	          3.72842614	        -13.75909636	         19.36175660	         -4.82575101	        -13.50032159	          5.89368920	         31.68998901	         25.67095303	         86.51662706	         86.51662706	          0.30915790	          0.05000018	          0.05000006	          0.49069343	          0.12876062	          0.05874932	          0.05000077	          0.05000009	          0.05000007	          0.05000015	          0.05691177	          0.14566608	          0.05000020	          0.05000044	          0.05000102	          0.05000031	          0.37658375	          0.05000135	          0.05000029	          0.05000108	          0.05000060	          0.05000045	          0.36958244	          0.71073385	          0.05000008	          0.05000027	          0.05000009	          0.46556811	          0.24067396	          0.24795294	          0.21273352	          0.27938086	          0.41322734	          0.20007255	          0.64171654	          0.32901527	          0.54774782	          0.05000000	          0.10139857	          0.51931935	          0.05000006	          0.05000001	          0.06436284	          0.05000001	          0.05000002	          0.05000001	          0.05000019	          0.05000152	          0.05000036	          0.05867670	          0.05001968	          0.05000080	          0.28043668	          0.08110831	          0.33690599	          0.05002911	          0.05000054	          0.07455780	          0.12850567	          0.12467595	          0.12346997	          0.15108459	          0.05000029	          0.05000174	          0.11220135	          0.05000133	          0.05000263	          0.12950007	          0.05002302	          0.05000056	          0.10283195	          0.05000328	          0.05000089	          0.05000008	          0.05000054	          0.05000047	          0.05000034	          0.05807006	          0.05000021	          0.05521837	          0.14287256	          0.05000052	          0.05000023	          0.39054955	          0.06086466	          0.34425591	          0.20687548	          0.54646317	          0.05000037	          0.05812968	          0.11255416	          0.13331094	
          0.01049904	         -2.92865988	         -2.00210017	          3.00992780	          0.01646398	          0.91331386	         -0.00306202	        -11.76156634	          2.22644220	          4.59557404	         28.36862752	          3.93800460	         -3.68731040	        -19.50626568	        -12.49054139	          3.48835146	         10.62821887	         -5.25778233	         -2.86608829	         -5.82898646	         -8.63893130	         32.68765868	         12.07702481	         -2.90620483	          1.07839858	         -1.67743819	          3.45795816	        -13.71743258	         19.37526978	         -5.47969399	        -13.46313143	          5.31201805	         32.64800136	         25.10626218	         86.51662706	         86.51662706	          0.31634378	          0.05000005	          0.05000001	          0.48660608	          0.10958507	          0.05000016	          0.05000068	          0.05000010	          0.05000007	          0.05000008	          0.05000064	          0.18506513	          0.05000159	          0.05000048	          0.05000134	          0.05000915	          0.32075018	          0.05007676	          0.05000017	          0.05000059	          0.05000036	          0.05000032	          0.31454254	          0.73276253	          0.05000002	          0.05000007	          0.05000001	          0.40374074	          0.23564332	          0.24750544	          0.20619227	          0.24752228	          0.38197408	          0.17027683	          0.59002906	          0.30458932	          0.48364060	          0.05000000	          0.08629783	          0.44197991	          0.05000007	          0.05000000	          0.05477768	          0.05000000	          0.05000000	          0.05000002	          0.11545899	          0.05000021	          0.05876440	          0.05000011	          0.05000016	          0.05000241	          0.27122970	          0.06902943	          0.32348849	          0.06902938	          0.05000053	          0.06345444	          0.10937147	          0.17448195	          0.14592343	          0.17660893	          0.05000037	          0.05018603	          0.12981227	          0.06902903	          0.06902929	          0.16400015	          0.05000004	          0.05000005	          0.18303901	          0.05001396	          0.05031510	          0.05000001	          0.05000003	          0.05000003	          0.05000003	          0.05874918	          0.05874906	          0.05658683	          0.17569535	          0.05000002	          0.05000006	          0.40264643	          0.05874946	          0.38732736	          0.24823837	          0.57811167	          0.06902946	          0.05874918	          0.09663654	          0.11345767	
          0.02099809	         -2.93010262	         -2.02895229	          3.23481689	          0.03320033	          0.91229185	         -0.00279950	        -12.31128553	          1.94810207	          4.36378643	         28.06359129	          4.13765273	         -3.55828836	        -19.99674507	        -12.92177250	          2.22190194	          9.97362353	         -4.63297910	         -2.92420377	         -6.87750788	         -8.45948810	         35.74441372	         11.48360241	         -2.72405018	          1.22221954	         -1.78726272	          3.11050176	        -13.66946796	         19.27806525	         -6.15704178	        -13.44970710	          4.94076032	         33.63523020	         24.55200081	         86.51662706	         86.51662706	          0.26923244	          0.05000005	          0.05000001	          0.41413852	          0.09326522	          0.05000027	          0.05000387	          0.05000014	          0.05000009	          0.05000028	          0.05000037	          0.15750460	          0.15259015	          0.05000041	          0.05000156	          0.06786831	          0.32557036	          0.05001459	          0.05000015	          0.05000030	          0.05000020	          0.05000021	          0.26769942	          0.63392822	          0.05000001	          0.05000017	          0.05874887	          0.35758723	          0.21406980	          0.23293871	          0.21343118	          0.21066013	          0.32508878	          0.14491842	          0.50215926	          0.25922859	          0.41161468	          0.05000000	          0.07344596	          0.37615823	          0.05000002	          0.05000000	          0.05000026	          0.05000000	          0.06902937	          0.05000008	          0.09826434	          0.05015882	          0.05001308	          0.05000223	          0.05000192	          0.05000027	          0.23083696	          0.05874926	          0.27791799	          0.05874922	          0.05000028	          0.05400459	          0.09308343	          0.19539529	          0.18100668	          0.18457185	          0.05000035	          0.05000048	          0.11048010	          0.05874915	          0.05874920	          0.17904892	          0.06263750	          0.08110799	          0.42884746	          0.11198008	          0.05000058	          0.07606702	          0.10306362	          0.10932596	          0.09652346	          0.05000000	          0.05000000	          0.05000000	          0.15998310	          0.09680032	          0.08110835	          0.38940164	          0.05000032	          0.38326029	          0.41900551	          0.58908284	          0.05874932	          0.05000000	          0.08224498	          0.09656104	
          0.03149713	         -2.92967940	         -2.06586270	          3.44947350	          0.05016591	          0.91120251	         -0.00252233	        -12.78532054	          1.63703762	          4.12052770	         27.72453580	          4.30490663	         -3.38631415	        -20.58319422	        -13.90871982	          0.76278917	          8.94982302	         -3.92152247	         -3.04595778	         -7.92380730	         -8.35316147	         38.93648251	         10.91318033	         -2.53179190	          1.37921132	         -1.88889818	          2.69549034	        -13.62623744	         19.13181969	         -6.85365235	        -13.46166694	          4.75727049	         34.66402505	         24.01150589	         86.51662706	         86.51662706	          0.23861007	          0.05000052	          0.05382588	          0.35246314	          0.07937579	          0.05000029	          0.05000043	          0.05000022	          0.05000058	          0.05000003	          0.05000091	          0.19832891	          0.20208028	          0.05874929	          0.05874935	          0.12569635	          0.27708524	          0.06902811	          0.05000994	          0.05874635	          0.05874872	          0.05874911	          0.22783239	          0.62016380	          0.05874919	          0.05000071	          0.05000003	          0.30433369	          0.18218957	          0.19824843	          0.18164605	          0.17928765	          0.27667507	          0.12333650	          0.42737538	          0.22062309	          0.35031514	          0.05454517	          0.06250805	          0.32013901	          0.05000001	          0.05000004	          0.05000032	          0.05589938	          0.05874920	          0.05000017	          0.28954424	          0.05000001	          0.36961730	          0.05000004	          0.05000004	          0.05000006	          0.19645967	          0.05000006	          0.23652919	          0.05000004	          0.06902934	          0.06903310	          0.24142327	          0.16629637	          0.15405395	          0.24799719	          0.05000023	          0.06903044	          0.09402698	          0.05000003	          0.05000003	          0.26602753	          0.06902892	          0.06902904	          0.36498154	          0.09530357	          0.15036686	          0.06473878	          0.12228951	          0.13939977	          0.10686433	          0.06110669	          0.06902925	          0.06241781	          0.14834830	          0.08238444	          0.06902937	          0.54637766	          0.28462885	          0.32618341	          0.35660529	          0.57134216	          0.05000010	          0.05000004	          0.06999668	          0.08218072	
